<mxfile host="app.diagrams.net" agent="Mozilla/5.0 (Windows NT 10.0; Win64; x64) AppleWebKit/537.36 (KHTML, like Gecko) Chrome/132.0.0.0 Safari/537.36" version="26.0.6">
  <diagram name="Page-1" id="biKVTbiWNsOgFYIUjnBT">
    <mxGraphModel dx="1120" dy="1629" grid="1" gridSize="10" guides="1" tooltips="1" connect="1" arrows="1" fold="1" page="1" pageScale="1" pageWidth="850" pageHeight="1100" math="0" shadow="0">
      <root>
        <mxCell id="0" />
        <mxCell id="1" parent="0" />
        <mxCell id="EJvUrGNgT3ZEwtPBKBOE-1" value="المشتري" style="shape=umlActor;verticalLabelPosition=bottom;verticalAlign=top;html=1;outlineConnect=0;" vertex="1" parent="1">
          <mxGeometry x="140" y="-10" width="30" height="60" as="geometry" />
        </mxCell>
        <mxCell id="EJvUrGNgT3ZEwtPBKBOE-16" style="edgeStyle=elbowEdgeStyle;rounded=0;orthogonalLoop=1;jettySize=auto;html=1;exitX=1;exitY=0.3333333333333333;exitDx=0;exitDy=0;exitPerimeter=0;" edge="1" parent="1" source="EJvUrGNgT3ZEwtPBKBOE-2" target="EJvUrGNgT3ZEwtPBKBOE-14">
          <mxGeometry relative="1" as="geometry">
            <Array as="points">
              <mxPoint x="220" y="80" />
            </Array>
          </mxGeometry>
        </mxCell>
        <mxCell id="EJvUrGNgT3ZEwtPBKBOE-2" value="البائع" style="shape=umlActor;verticalLabelPosition=bottom;verticalAlign=top;html=1;outlineConnect=0;" vertex="1" parent="1">
          <mxGeometry x="140" y="110" width="30" height="60" as="geometry" />
        </mxCell>
        <mxCell id="EJvUrGNgT3ZEwtPBKBOE-17" style="edgeStyle=elbowEdgeStyle;rounded=0;orthogonalLoop=1;jettySize=auto;html=1;exitX=1;exitY=0.3333333333333333;exitDx=0;exitDy=0;exitPerimeter=0;entryX=-0.011;entryY=0.68;entryDx=0;entryDy=0;entryPerimeter=0;" edge="1" parent="1" source="EJvUrGNgT3ZEwtPBKBOE-3" target="EJvUrGNgT3ZEwtPBKBOE-14">
          <mxGeometry relative="1" as="geometry" />
        </mxCell>
        <mxCell id="EJvUrGNgT3ZEwtPBKBOE-3" value="المسؤول" style="shape=umlActor;verticalLabelPosition=bottom;verticalAlign=top;html=1;outlineConnect=0;" vertex="1" parent="1">
          <mxGeometry x="140" y="230" width="30" height="60" as="geometry" />
        </mxCell>
        <mxCell id="EJvUrGNgT3ZEwtPBKBOE-13" value="Vertical Container" style="swimlane;whiteSpace=wrap;html=1;" vertex="1" parent="1">
          <mxGeometry x="200" y="-60" width="460" height="490" as="geometry" />
        </mxCell>
        <mxCell id="EJvUrGNgT3ZEwtPBKBOE-14" value="تسجيل الدخول" style="ellipse;whiteSpace=wrap;html=1;" vertex="1" parent="EJvUrGNgT3ZEwtPBKBOE-13">
          <mxGeometry x="170" y="50" width="90" height="50" as="geometry" />
        </mxCell>
        <mxCell id="EJvUrGNgT3ZEwtPBKBOE-15" style="edgeStyle=orthogonalEdgeStyle;rounded=0;orthogonalLoop=1;jettySize=auto;html=1;exitX=1;exitY=0.3333333333333333;exitDx=0;exitDy=0;exitPerimeter=0;entryX=0;entryY=0.38;entryDx=0;entryDy=0;entryPerimeter=0;" edge="1" parent="1">
          <mxGeometry relative="1" as="geometry">
            <mxPoint x="170" y="10" as="sourcePoint" />
            <mxPoint x="370" y="9" as="targetPoint" />
          </mxGeometry>
        </mxCell>
        <mxCell id="EJvUrGNgT3ZEwtPBKBOE-18" value="Object" style="html=1;whiteSpace=wrap;" vertex="1" parent="1">
          <mxGeometry x="80" y="-300" width="110" height="50" as="geometry" />
        </mxCell>
      </root>
    </mxGraphModel>
  </diagram>
</mxfile>
